<svg width="304" height="47" viewBox="0 0 304 47" fill="none" xmlns="http://www.w3.org/2000/svg">
<path d="M49.3382 36.048C47.4502 36.048 45.8342 35.648 44.4902 34.848C43.1782 34.016 42.1542 32.832 41.4182 31.296C40.7142 29.76 40.3622 27.92 40.3622 25.776V10.032H48.0902V24.72C48.0902 25.744 48.2502 26.624 48.5702 27.36C48.8902 28.096 49.3702 28.672 50.0102 29.088C50.6502 29.472 51.4182 29.664 52.3142 29.664C52.9862 29.664 53.5942 29.552 54.1382 29.328C54.7142 29.104 55.1942 28.8 55.5782 28.416C55.9942 28 56.3142 27.536 56.5382 27.024C56.7622 26.48 56.8742 25.888 56.8742 25.248V10.032H64.6022V35.52H57.3542L57.0182 30.288L58.4582 29.712C58.0742 30.928 57.4342 32.016 56.5382 32.976C55.6422 33.904 54.5702 34.656 53.3222 35.232C52.0742 35.776 50.7462 36.048 49.3382 36.048Z" fill="black"/>
<path d="M80.8551 35.952C78.7111 35.952 76.7911 35.392 75.0951 34.272C73.4311 33.12 72.1031 31.552 71.1111 29.568C70.1191 27.552 69.6231 25.28 69.6231 22.752C69.6231 20.16 70.1191 17.872 71.1111 15.888C72.1031 13.904 73.4631 12.352 75.1911 11.232C76.9191 10.08 78.8871 9.504 81.0951 9.504C82.3111 9.504 83.4151 9.68 84.4071 10.032C85.4311 10.384 86.3271 10.88 87.0951 11.52C87.8631 12.128 88.5191 12.848 89.0631 13.68C89.6071 14.48 90.0071 15.344 90.2631 16.272L88.6791 16.08V10.032H96.3111V35.52H88.5351V29.376L90.2631 29.328C90.0071 30.224 89.5911 31.072 89.0151 31.872C88.4391 32.672 87.7351 33.376 86.9031 33.984C86.0711 34.592 85.1431 35.072 84.1191 35.424C83.0951 35.776 82.0071 35.952 80.8551 35.952ZM82.9671 29.472C84.1511 29.472 85.1751 29.2 86.0391 28.656C86.9031 28.112 87.5751 27.344 88.0551 26.352C88.5351 25.328 88.7751 24.128 88.7751 22.752C88.7751 21.376 88.5351 20.192 88.0551 19.2C87.5751 18.176 86.9031 17.392 86.0391 16.848C85.1751 16.272 84.1511 15.984 82.9671 15.984C81.8151 15.984 80.8071 16.272 79.9431 16.848C79.1111 17.392 78.4551 18.176 77.9751 19.2C77.4951 20.192 77.2551 21.376 77.2551 22.752C77.2551 24.128 77.4951 25.328 77.9751 26.352C78.4551 27.344 79.1111 28.112 79.9431 28.656C80.8071 29.2 81.8151 29.472 82.9671 29.472Z" fill="black"/>
<path d="M103.088 35.52V10.032H110.384L110.72 18.336L109.28 16.752C109.664 15.376 110.288 14.144 111.152 13.056C112.048 11.968 113.088 11.104 114.272 10.464C115.456 9.824 116.72 9.504 118.064 9.504C118.64 9.504 119.168 9.552 119.648 9.648C120.16 9.744 120.624 9.856 121.04 9.984L118.928 18.48C118.576 18.256 118.096 18.08 117.488 17.952C116.912 17.792 116.304 17.712 115.664 17.712C114.96 17.712 114.304 17.84 113.696 18.096C113.088 18.32 112.576 18.656 112.16 19.104C111.744 19.552 111.408 20.08 111.152 20.688C110.928 21.296 110.816 21.984 110.816 22.752V35.52H103.088Z" fill="black"/>
<path d="M132.323 28.032L129.491 22.272L141.395 10.032H151.523L132.323 28.032ZM124.931 35.52V0H132.611V35.52H124.931ZM142.211 35.52L133.235 23.904L138.659 19.68L151.283 35.52H142.211Z" fill="black"/>
<path d="M170.497 35.52V28.656H176.161V8.784H170.497V1.92H190.033V8.784H184.321V28.656H190.033V35.52H170.497Z" fill="black"/>
<path d="M208.162 36C205.698 36 203.49 35.424 201.538 34.272C199.586 33.12 198.034 31.552 196.882 29.568C195.762 27.552 195.202 25.28 195.202 22.752C195.202 20.224 195.762 17.968 196.882 15.984C198.034 13.968 199.586 12.384 201.538 11.232C203.49 10.08 205.698 9.504 208.162 9.504C210.434 9.504 212.514 9.904 214.402 10.704C216.322 11.504 217.842 12.624 218.962 14.064L214.786 19.056C214.338 18.544 213.81 18.064 213.202 17.616C212.594 17.168 211.922 16.816 211.186 16.56C210.45 16.304 209.682 16.176 208.882 16.176C207.666 16.176 206.594 16.464 205.666 17.04C204.738 17.584 204.018 18.352 203.506 19.344C202.994 20.336 202.738 21.472 202.738 22.752C202.738 23.968 202.994 25.072 203.506 26.064C204.05 27.056 204.786 27.84 205.714 28.416C206.642 28.992 207.698 29.28 208.882 29.28C209.714 29.28 210.482 29.184 211.186 28.992C211.89 28.768 212.53 28.448 213.106 28.032C213.714 27.616 214.274 27.104 214.786 26.496L218.914 31.536C217.826 32.912 216.306 34 214.354 34.8C212.434 35.6 210.37 36 208.162 36Z" fill="black"/>
<path d="M235.135 36C232.479 36 230.111 35.424 228.031 34.272C225.983 33.12 224.351 31.552 223.135 29.568C221.951 27.584 221.359 25.312 221.359 22.752C221.359 20.192 221.951 17.92 223.135 15.936C224.351 13.952 225.983 12.384 228.031 11.232C230.111 10.08 232.479 9.504 235.135 9.504C237.791 9.504 240.143 10.08 242.191 11.232C244.271 12.384 245.903 13.952 247.087 15.936C248.271 17.92 248.863 20.192 248.863 22.752C248.863 25.312 248.271 27.584 247.087 29.568C245.903 31.552 244.271 33.12 242.191 34.272C240.143 35.424 237.791 36 235.135 36ZM235.135 29.376C236.287 29.376 237.311 29.088 238.207 28.512C239.103 27.936 239.807 27.152 240.319 26.16C240.831 25.168 241.071 24.032 241.039 22.752C241.071 21.472 240.831 20.336 240.319 19.344C239.807 18.32 239.103 17.52 238.207 16.944C237.311 16.368 236.287 16.08 235.135 16.08C233.983 16.08 232.943 16.368 232.015 16.944C231.119 17.52 230.415 18.32 229.903 19.344C229.391 20.336 229.151 21.472 229.183 22.752C229.151 24.032 229.391 25.168 229.903 26.16C230.415 27.152 231.119 27.936 232.015 28.512C232.943 29.088 233.983 29.376 235.135 29.376Z" fill="black"/>
<path d="M253.885 35.52V10.032H261.181L261.421 15.216L259.885 15.792C260.237 14.64 260.861 13.6 261.757 12.672C262.685 11.712 263.789 10.944 265.069 10.368C266.349 9.792 267.693 9.504 269.101 9.504C271.021 9.504 272.637 9.904 273.949 10.704C275.261 11.472 276.253 12.64 276.925 14.208C277.597 15.744 277.933 17.632 277.933 19.872V35.52H270.205V20.496C270.205 19.472 270.061 18.624 269.773 17.952C269.485 17.28 269.037 16.784 268.429 16.464C267.853 16.112 267.133 15.952 266.269 15.984C265.597 15.984 264.973 16.096 264.397 16.32C263.821 16.512 263.325 16.816 262.909 17.232C262.493 17.616 262.157 18.064 261.901 18.576C261.677 19.088 261.565 19.648 261.565 20.256V35.52H257.773C256.877 35.52 256.109 35.52 255.469 35.52C254.829 35.52 254.301 35.52 253.885 35.52Z" fill="black"/>
<path d="M292.945 36C290.449 36 288.241 35.6 286.321 34.8C284.433 34 282.929 32.928 281.809 31.584L286.465 27.552C287.457 28.544 288.577 29.28 289.825 29.76C291.073 30.208 292.257 30.432 293.377 30.432C293.825 30.432 294.225 30.384 294.577 30.288C294.929 30.192 295.217 30.064 295.441 29.904C295.697 29.712 295.889 29.504 296.017 29.28C296.145 29.024 296.209 28.736 296.209 28.416C296.209 27.776 295.921 27.28 295.345 26.928C295.057 26.768 294.577 26.576 293.905 26.352C293.233 26.128 292.369 25.872 291.313 25.584C289.809 25.2 288.497 24.752 287.377 24.24C286.289 23.696 285.393 23.072 284.689 22.368C284.049 21.696 283.553 20.96 283.201 20.16C282.849 19.328 282.673 18.4 282.673 17.376C282.673 16.192 282.945 15.12 283.489 14.16C284.065 13.2 284.817 12.368 285.745 11.664C286.705 10.96 287.793 10.432 289.009 10.08C290.257 9.696 291.537 9.504 292.849 9.504C294.257 9.504 295.601 9.664 296.881 9.984C298.161 10.304 299.345 10.752 300.433 11.328C301.553 11.904 302.545 12.592 303.409 13.392L299.377 17.904C298.801 17.36 298.145 16.88 297.409 16.464C296.705 16.016 295.969 15.664 295.201 15.408C294.433 15.152 293.729 15.024 293.089 15.024C292.609 15.024 292.177 15.072 291.793 15.168C291.441 15.232 291.137 15.36 290.881 15.552C290.625 15.712 290.433 15.92 290.305 16.176C290.177 16.4 290.113 16.672 290.113 16.992C290.113 17.312 290.193 17.616 290.353 17.904C290.545 18.192 290.801 18.432 291.121 18.624C291.441 18.816 291.953 19.04 292.657 19.296C293.361 19.52 294.321 19.808 295.537 20.16C297.041 20.576 298.337 21.04 299.425 21.552C300.513 22.064 301.377 22.672 302.017 23.376C302.529 23.92 302.913 24.56 303.169 25.296C303.425 26 303.553 26.768 303.553 27.6C303.553 29.232 303.089 30.688 302.161 31.968C301.265 33.216 300.017 34.208 298.417 34.944C296.817 35.648 294.993 36 292.945 36Z" fill="black"/>
<path fill-rule="evenodd" clip-rule="evenodd" d="M28 18.52C28 24.0429 23.5228 28.52 18 28.52C12.4772 28.52 8 24.0429 8 18.52C8 12.9972 12.4772 8.52002 18 8.52002C23.5228 8.52002 28 12.9972 28 18.52ZM36 18.52C36 28.4611 27.9411 36.52 18 36.52C8.05887 36.52 0 28.4611 0 18.52C0 8.57889 8.05887 0.52002 18 0.52002C27.9411 0.52002 36 8.57889 36 18.52ZM35 39.52C35 40.6246 34.1046 41.52 33 41.52C31.8954 41.52 31 40.6246 31 39.52C31 38.4155 31.8954 37.52 33 37.52C34.1046 37.52 35 38.4155 35 39.52ZM40 39.52C40 43.386 36.866 46.52 33 46.52C29.134 46.52 26 43.386 26 39.52C26 35.654 29.134 32.52 33 32.52C36.866 32.52 40 35.654 40 39.52Z" fill="black"/>
</svg>
