<svg width="24" height="24" viewBox="0 0 24 24" fill="none" xmlns="http://www.w3.org/2000/svg">
<path fill-rule="evenodd" clip-rule="evenodd" d="M3.86986 4.78626C3.982 3.21634 5.28832 2 6.86224 2H17.1378C18.7117 2 20.018 3.21634 20.1301 4.78626L20.7861 13.9701C20.941 16.1385 20.1469 18.2673 18.6097 19.8045C17.204 21.2103 15.2974 22 13.3093 22H10.6907C8.70265 22 6.79605 21.2103 5.39031 19.8045C3.85311 18.2673 3.05899 16.1385 3.21387 13.9701L3.86986 4.78626ZM6.86224 4C6.3376 4 5.90216 4.40545 5.86478 4.92875L5.20879 14.1126C5.09523 15.7024 5.67747 17.2633 6.80452 18.3903C7.83519 19.421 9.23308 20 10.6907 20H13.3093C14.7669 20 16.1648 19.421 17.1955 18.3903C18.3225 17.2633 18.9048 15.7024 18.7912 14.1126L18.1352 4.92875C18.0978 4.40545 17.6624 4 17.1378 4H6.86224Z" fill="black"/>
<path fill-rule="evenodd" clip-rule="evenodd" d="M9 4C9 5.65685 10.3431 7 12 7C13.6569 7 15 5.65685 15 4H17C17 6.76142 14.7614 9 12 9C9.23858 9 7 6.76142 7 4H9Z" fill="black"/>
</svg>
