<svg width="24" height="24" viewBox="0 0 24 24" fill="none" xmlns="http://www.w3.org/2000/svg">
<path fill-rule="evenodd" clip-rule="evenodd" d="M3.86986 4.78626C3.982 3.21634 5.28832 2 6.86224 2H17.1378C18.7117 2 20.018 3.21634 20.1301 4.78626L20.7861 13.9701C20.7959 14.1072 20.621 14.1702 20.5308 14.0665C20.0784 13.5458 19.5376 13.1038 18.9319 12.7639C18.7811 12.6793 18.678 12.5273 18.6657 12.3548L18.1352 4.92875C18.0978 4.40545 17.6624 4 17.1378 4L17 4C17 6.76142 14.7614 9 12 9C9.23858 9 7 6.76142 7 4L6.86224 4C6.3376 4 5.90216 4.40545 5.86478 4.92875L5.20879 14.1126C5.09523 15.7024 5.67747 17.2633 6.80452 18.3903C7.62385 19.2096 8.67525 19.7436 9.80422 19.9281C10.1255 19.9806 10.4028 20.1903 10.5378 20.4864C10.6738 20.7847 10.8335 21.0699 11.0145 21.3395C11.1948 21.6081 11.0142 22 10.6907 22C8.70265 22 6.79605 21.2103 5.39031 19.8045C3.85311 18.2673 3.05899 16.1385 3.21387 13.9701L3.86986 4.78626ZM12 7C10.3431 7 9 5.65685 9 4H15C15 5.65685 13.6569 7 12 7Z" fill="black"/>
<path d="M17 14C17 13.4477 16.5523 13 16 13C15.4477 13 15 13.4477 15 14V17H12C11.4477 17 11 17.4477 11 18C11 18.5523 11.4477 19 12 19H15V22C15 22.5523 15.4477 23 16 23C16.5523 23 17 22.5523 17 22V19H20C20.5523 19 21 18.5523 21 18C21 17.4477 20.5523 17 20 17H17V14Z" fill="black"/>
</svg>
