<svg width="24" height="24" viewBox="0 0 24 24" fill="none" xmlns="http://www.w3.org/2000/svg">
<path fill-rule="evenodd" clip-rule="evenodd" d="M12 2C8.66123 2 6.82957 3.42375 5.89252 4.9855C5.44339 5.73406 5.2228 6.47456 5.11318 7.02263C5.05801 7.29848 5.02983 7.53118 5.01538 7.69976C5.00814 7.78422 5.00431 7.85311 5.00228 7.90388C5.00126 7.92928 5.00069 7.95019 5.00038 7.96631L5.00008 7.98685L5.00003 7.99436L5.00002 7.99742L5.00001 7.99877L5.00001 8L5.00001 8.00124L5.00001 13.6379L2.73179 16.3598C2.48339 16.6579 2.42984 17.0728 2.59442 17.4242C2.759 17.7755 3.11199 18 3.50001 18H7.10001C7.56328 20.2822 9.58103 22 12 22C14.4189 22 16.4367 20.2822 16.9 18H20.5C20.888 18 21.241 17.7755 21.4056 17.4242C21.5702 17.0728 21.5166 16.6579 21.2682 16.3598L19 13.638V8V7.99877L19 7.99742L19 7.99436L18.9999 7.98685L18.9996 7.96631C18.9993 7.95019 18.9988 7.92928 18.9977 7.90388C18.9957 7.85311 18.9919 7.78422 18.9846 7.69976C18.9702 7.53118 18.942 7.29848 18.8868 7.02263C18.7772 6.47456 18.5566 5.73406 18.1075 4.9855C17.1705 3.42375 15.3388 2 12 2ZM14.8293 18H9.17069C9.58253 19.1652 10.6938 20 12 20C13.3062 20 14.4174 19.1652 14.8293 18ZM7.00068 7.98382L7.00001 8.00488V14C7.00001 14.2339 6.918 14.4605 6.76823 14.6402L5.63505 16H18.365L17.2318 14.6402C17.082 14.4605 17 14.2339 17 14V8.00489L16.9993 7.98382C16.9984 7.96134 16.9964 7.92281 16.9919 7.87056C16.983 7.76569 16.9643 7.60777 16.9257 7.41487C16.8478 7.02544 16.6934 6.51594 16.3925 6.0145C15.8296 5.07625 14.6612 4 12 4C9.33879 4 8.17045 5.07625 7.60751 6.0145C7.30664 6.51594 7.15223 7.02544 7.07434 7.41487C7.03576 7.60777 7.01707 7.76569 7.00808 7.87056C7.0036 7.92281 7.00158 7.96134 7.00068 7.98382Z" fill="black"/>
</svg>
