<svg width="24" height="24" viewBox="0 0 24 24" fill="none" xmlns="http://www.w3.org/2000/svg">
<path fill-rule="evenodd" clip-rule="evenodd" d="M8 4C8 3.44772 7.55228 3 7 3C6.44772 3 6 3.44772 6 4V6H5C3.34315 6 2 7.34315 2 9V19C2 20.6569 3.34315 22 5 22H19C20.6569 22 22 20.6569 22 19V9C22 7.34315 20.6569 6 19 6H18V4C18 3.44772 17.5523 3 17 3C16.4477 3 16 3.44772 16 4V6H8V4ZM6 8V10C6 10.5523 6.44772 11 7 11C7.55228 11 8 10.5523 8 10V8H16V10C16 10.5523 16.4477 11 17 11C17.5523 11 18 10.5523 18 10V8H19C19.5523 8 20 8.44772 20 9V19C20 19.5523 19.5523 20 19 20H5C4.44772 20 4 19.5523 4 19V9C4 8.44772 4.44772 8 5 8H6Z" fill="black"/>
</svg>
