<svg width="24" height="24" viewBox="0 0 24 24" fill="none" xmlns="http://www.w3.org/2000/svg">
<path fill-rule="evenodd" clip-rule="evenodd" d="M2 3C2 2.44772 2.44772 2 3 2H3.22133C4.7226 2 5.99274 3.10973 6.1942 4.59743L6.24871 5H18.2251C20.2728 5 21.7187 7.00609 21.0712 8.94868L19.4045 13.9487C18.9962 15.1737 17.8498 16 16.5585 16H7.73829L7.75647 16.1342C7.82362 16.6301 8.247 17 8.74742 17H17C17.5523 17 18 17.4477 18 18C18 18.5523 17.5523 19 17 19H8.74742C7.24615 19 5.97601 17.8903 5.77455 16.4026L4.21228 4.86581C4.14513 4.36991 3.72175 4 3.22133 4H3C2.44772 4 2 3.55228 2 3ZM7.46746 14H16.5585C16.9889 14 17.3711 13.7246 17.5072 13.3162L19.1738 8.31623C19.3897 7.6687 18.9077 7 18.2251 7H6.51954L7.46746 14Z" fill="black"/>
<path d="M17 20.5C17 21.3284 16.3284 22 15.5 22C14.6716 22 14 21.3284 14 20.5C14 19.6716 14.6716 19 15.5 19C16.3284 19 17 19.6716 17 20.5Z" fill="black"/>
<path d="M9 20.5C9 21.3284 8.32843 22 7.5 22C6.67157 22 6 21.3284 6 20.5C6 19.6716 6.67157 19 7.5 19C8.32843 19 9 19.6716 9 20.5Z" fill="black"/>
</svg>
