<svg width="24" height="24" viewBox="0 0 24 24" fill="none" xmlns="http://www.w3.org/2000/svg">
<path fill-rule="evenodd" clip-rule="evenodd" d="M12 20C16.4183 20 20 16.4183 20 12C20 7.58172 16.4183 4 12 4C7.58172 4 4 7.58172 4 12C4 16.4183 7.58172 20 12 20ZM12 22C17.5228 22 22 17.5228 22 12C22 6.47715 17.5228 2 12 2C6.47715 2 2 6.47715 2 12C2 17.5228 6.47715 22 12 22Z" fill="black"/>
<path fill-rule="evenodd" clip-rule="evenodd" d="M17.1508 8.24074C17.5701 8.60017 17.6187 9.23147 17.2593 9.65079L11.2593 16.6508C11.078 16.8623 10.8167 16.9886 10.5384 16.9993C10.26 17.01 9.98986 16.9041 9.7929 16.7071L6.79289 13.7071C6.40237 13.3166 6.40237 12.6834 6.79289 12.2929C7.18342 11.9024 7.81658 11.9024 8.20711 12.2929L10.4435 14.5293L15.7407 8.34921C16.1002 7.92988 16.7315 7.88132 17.1508 8.24074Z" fill="black"/>
</svg>
