<svg width="24" height="24" viewBox="0 0 24 24" fill="none" xmlns="http://www.w3.org/2000/svg">
<path fill-rule="evenodd" clip-rule="evenodd" d="M9 4C9 5.65685 10.3431 7 12 7C13.6569 7 15 5.65685 15 4H17C17 6.76142 14.7614 9 12 9C9.23858 9 7 6.76142 7 4H9Z" fill="black"/>
<path fill-rule="evenodd" clip-rule="evenodd" d="M6.86224 2C5.28832 2 3.982 3.21634 3.86986 4.78626L3.21387 13.9701C3.05899 16.1385 3.85311 18.2673 5.39031 19.8045C6.79605 21.2103 8.70265 22 10.6907 22H13.3093C14.4838 22 15.6298 21.7244 16.661 21.209L15.8713 19.3663C15.0885 19.7787 14.2103 20 13.3093 20H10.6907C9.23308 20 7.83519 19.421 6.80452 18.3903C5.67747 17.2633 5.09523 15.7024 5.20879 14.1126L5.86478 4.92875C5.90216 4.40545 6.3376 4 6.86224 4H17.1378C17.6624 4 18.0978 4.40545 18.1352 4.92875L18.7912 14.1126C18.8518 14.9611 18.7142 15.8014 18.4014 16.5719L20.2861 17.245C20.6904 16.216 20.8667 15.0984 20.7861 13.9701L20.1301 4.78626C20.018 3.21634 18.7117 2 17.1378 2H6.86224Z" fill="black"/>
<path fill-rule="evenodd" clip-rule="evenodd" d="M13.2714 14.3151C13.5437 14.0254 13.9619 13.9245 14.3363 14.0583L21.3363 16.5583C21.6493 16.67 21.8864 16.9301 21.9688 17.252C22.0512 17.574 21.9682 17.9159 21.7474 18.1644L20.4077 19.6716L22.169 21.2567C22.5795 21.6262 22.6128 22.2585 22.2433 22.669C21.8738 23.0795 21.2415 23.1128 20.831 22.7433L19.0789 21.1664L17.7474 22.6644C17.52 22.9202 17.1776 23.0419 16.8398 22.9871C16.502 22.9323 16.2157 22.7085 16.0809 22.3939L13.0809 15.3939C12.9242 15.0284 12.999 14.6048 13.2714 14.3151ZM15.8219 16.7125L17.2988 20.1586L19.268 17.9433L15.8219 16.7125Z" fill="black"/>
</svg>
