<svg width="24" height="24" viewBox="0 0 24 24" fill="none" xmlns="http://www.w3.org/2000/svg">
<path d="M14.2929 17.2929C13.9024 17.6834 13.9024 18.3166 14.2929 18.7071C14.6834 19.0976 15.3166 19.0976 15.7071 18.7071L21.7071 12.7071C22.0976 12.3166 22.0976 11.6834 21.7071 11.2929L15.7071 5.29289C15.3166 4.90237 14.6834 4.90237 14.2929 5.29289C13.9024 5.68342 13.9024 6.31658 14.2929 6.70711L19.5858 12L14.2929 17.2929Z" fill="black"/>
<path d="M9.70711 6.70711C10.0976 6.31658 10.0976 5.68342 9.70711 5.29289C9.31658 4.90237 8.68342 4.90237 8.29289 5.29289L2.29289 11.2929C1.90237 11.6834 1.90237 12.3166 2.29289 12.7071L8.29289 18.7071C8.68342 19.0976 9.31658 19.0976 9.70711 18.7071C10.0976 18.3166 10.0976 17.6834 9.70711 17.2929L4.41421 12L9.70711 6.70711Z" fill="black"/>
</svg>
