<svg width="24" height="24" viewBox="0 0 24 24" fill="none" xmlns="http://www.w3.org/2000/svg">
<path fill-rule="evenodd" clip-rule="evenodd" d="M7 3C7 2.44772 6.55228 2 6 2C5.44772 2 5 2.44772 5 3V6C5 6.55228 5.44772 7 6 7C6.55228 7 7 6.55228 7 6V3ZM2 11C2 9.34315 3.34315 8 5 8H17H18C20.2091 8 22 9.79086 22 12C22 14.2091 20.2091 16 18 16V17C18 19.7614 15.7614 22 13 22H7C4.23858 22 2 19.7614 2 17V11ZM20 12C20 13.1046 19.1046 14 18 14V10C19.1046 10 20 10.8954 20 12ZM5 10C4.44772 10 4 10.4477 4 11V17C4 18.6569 5.34315 20 7 20H13C14.6569 20 16 18.6569 16 17V10H5ZM10 2C10.5523 2 11 2.44772 11 3V6C11 6.55228 10.5523 7 10 7C9.44772 7 9 6.55228 9 6V3C9 2.44772 9.44772 2 10 2ZM15 3C15 2.44772 14.5523 2 14 2C13.4477 2 13 2.44772 13 3V6C13 6.55228 13.4477 7 14 7C14.5523 7 15 6.55228 15 6V3Z" fill="black"/>
</svg>
