<svg width="24" height="24" viewBox="0 0 24 24" fill="none" xmlns="http://www.w3.org/2000/svg">
<path fill-rule="evenodd" clip-rule="evenodd" d="M5 2C3.34315 2 2 3.34315 2 5V13C2 14.6569 3.34315 16 5 16H8V19C8 20.6569 9.34315 22 11 22H19C20.6569 22 22 20.6569 22 19V11C22 9.34315 20.6569 8 19 8H16V5C16 3.34315 14.6569 2 13 2H5ZM14 8V5C14 4.44772 13.5523 4 13 4H5C4.44772 4 4 4.44772 4 5V13C4 13.5523 4.44772 14 5 14H8V11C8 9.34315 9.34315 8 11 8H14ZM10 19C10 19.5523 10.4477 20 11 20H19C19.5523 20 20 19.5523 20 19V11C20 10.4477 19.5523 10 19 10H11C10.4477 10 10 10.4477 10 11V19Z" fill="black"/>
</svg>
