<svg width="24" height="24" viewBox="0 0 24 24" fill="none" xmlns="http://www.w3.org/2000/svg">
<path fill-rule="evenodd" clip-rule="evenodd" d="M16.2929 2.29289C16.6834 1.90237 17.3166 1.90237 17.7071 2.29289L21.7071 6.29289C22.0976 6.68342 22.0976 7.31658 21.7071 7.70711L17.7071 11.7071C17.3166 12.0976 16.6834 12.0976 16.2929 11.7071C15.9024 11.3166 15.9024 10.6834 16.2929 10.2929L18.5858 8H9C7.89543 8 7 8.89543 7 10V21C7 21.5523 6.55228 22 6 22C5.44772 22 5 21.5523 5 21V10C5 7.79086 6.79086 6 9 6H18.5858L16.2929 3.70711C15.9024 3.31658 15.9024 2.68342 16.2929 2.29289Z" fill="black"/>
</svg>
