<svg width="24" height="24" viewBox="0 0 24 24" fill="none" xmlns="http://www.w3.org/2000/svg">
<path fill-rule="evenodd" clip-rule="evenodd" d="M7.70711 21.7071C7.31658 22.0976 6.68342 22.0976 6.29289 21.7071L2.29289 17.7071C1.90237 17.3166 1.90237 16.6834 2.29289 16.2929L6.29289 12.2929C6.68342 11.9024 7.31658 11.9024 7.70711 12.2929C8.09763 12.6834 8.09763 13.3166 7.70711 13.7071L5.41421 16L15 16C16.1046 16 17 15.1046 17 14L17 3C17 2.44772 17.4477 2 18 2C18.5523 2 19 2.44772 19 3V14C19 16.2091 17.2091 18 15 18L5.41421 18L7.70711 20.2929C8.09763 20.6834 8.09763 21.3166 7.70711 21.7071Z" fill="black"/>
</svg>
