<svg width="24" height="24" viewBox="0 0 24 24" fill="none" xmlns="http://www.w3.org/2000/svg">
<path fill-rule="evenodd" clip-rule="evenodd" d="M2.29289 7.70711C1.90237 7.31658 1.90237 6.68342 2.29289 6.29289L6.29289 2.29289C6.68342 1.90237 7.31658 1.90237 7.70711 2.29289L11.7071 6.29289C12.0976 6.68342 12.0976 7.31658 11.7071 7.70711C11.3166 8.09763 10.6834 8.09763 10.2929 7.70711L8 5.41421L8 15C8 16.1046 8.89543 17 10 17H21C21.5523 17 22 17.4477 22 18C22 18.5523 21.5523 19 21 19L10 19C7.79086 19 6 17.2091 6 15L6 5.41421L3.70711 7.70711C3.31658 8.09763 2.68342 8.09763 2.29289 7.70711Z" fill="black"/>
</svg>
