<svg width="24" height="24" viewBox="0 0 24 24" fill="none" xmlns="http://www.w3.org/2000/svg">
<path fill-rule="evenodd" clip-rule="evenodd" d="M21.7071 7.70711C22.0976 7.31658 22.0976 6.68342 21.7071 6.29289L17.7071 2.29289C17.3166 1.90237 16.6834 1.90237 16.2929 2.29289L12.2929 6.29289C11.9024 6.68342 11.9024 7.31658 12.2929 7.70711C12.6834 8.09763 13.3166 8.09763 13.7071 7.70711L16 5.41421L16 15C16 16.1046 15.1046 17 14 17H3C2.44772 17 2 17.4477 2 18C2 18.5523 2.44772 19 3 19L14 19C16.2091 19 18 17.2091 18 15V5.41421L20.2929 7.70711C20.6834 8.09763 21.3166 8.09763 21.7071 7.70711Z" fill="black"/>
</svg>
