<svg width="24" height="24" viewBox="0 0 24 24" fill="none" xmlns="http://www.w3.org/2000/svg">
<path fill-rule="evenodd" clip-rule="evenodd" d="M7.70711 2.29289C7.31658 1.90237 6.68342 1.90237 6.29289 2.29289L2.29289 6.29289C1.90237 6.68342 1.90237 7.31658 2.29289 7.70711L6.29289 11.7071C6.68342 12.0976 7.31658 12.0976 7.70711 11.7071C8.09763 11.3166 8.09763 10.6834 7.70711 10.2929L5.41421 8H15C16.1046 8 17 8.89543 17 10V21C17 21.5523 17.4477 22 18 22C18.5523 22 19 21.5523 19 21V10C19 7.79086 17.2091 6 15 6H5.41421L7.70711 3.70711C8.09763 3.31658 8.09763 2.68342 7.70711 2.29289Z" fill="black"/>
</svg>
