<svg width="24" height="24" viewBox="0 0 24 24" fill="none" xmlns="http://www.w3.org/2000/svg">
<path fill-rule="evenodd" clip-rule="evenodd" d="M16.2929 21.7071C16.6834 22.0976 17.3166 22.0976 17.7071 21.7071L21.7071 17.7071C22.0976 17.3166 22.0976 16.6834 21.7071 16.2929L17.7071 12.2929C17.3166 11.9024 16.6834 11.9024 16.2929 12.2929C15.9024 12.6834 15.9024 13.3166 16.2929 13.7071L18.5858 16L9 16C7.89543 16 7 15.1046 7 14L7 3C7 2.44772 6.55228 2 6 2C5.44772 2 5 2.44772 5 3L5 14C5 16.2091 6.79086 18 9 18L18.5858 18L16.2929 20.2929C15.9024 20.6834 15.9024 21.3166 16.2929 21.7071Z" fill="black"/>
</svg>
