<svg width="24" height="24" viewBox="0 0 24 24" fill="none" xmlns="http://www.w3.org/2000/svg">
<path fill-rule="evenodd" clip-rule="evenodd" d="M2.29289 16.2929C1.90237 16.6834 1.90237 17.3166 2.29289 17.7071L6.29289 21.7071C6.68342 22.0976 7.31658 22.0976 7.70711 21.7071L11.7071 17.7071C12.0976 17.3166 12.0976 16.6834 11.7071 16.2929C11.3166 15.9024 10.6834 15.9024 10.2929 16.2929L8 18.5858L8 9C8 7.89543 8.89543 7 10 7L21 7C21.5523 7 22 6.55229 22 6C22 5.44772 21.5523 5 21 5L10 5C7.79086 5 6 6.79086 6 9L6 18.5858L3.70711 16.2929C3.31658 15.9024 2.68342 15.9024 2.29289 16.2929Z" fill="black"/>
</svg>
