<svg width="24" height="24" viewBox="0 0 24 24" fill="none" xmlns="http://www.w3.org/2000/svg">
<path fill-rule="evenodd" clip-rule="evenodd" d="M10 8C8.89543 8 8 8.89543 8 10V14C8 15.1046 8.89543 16 10 16H14C15.1046 16 16 15.1046 16 14V10C16 8.89543 15.1046 8 14 8H10ZM10 10H14V14H10V10Z" fill="black"/>
<path fill-rule="evenodd" clip-rule="evenodd" d="M16 3C16 2.44772 15.5523 2 15 2C14.4477 2 14 2.44772 14 3V4H10V3C10 2.44772 9.55228 2 9 2C8.44772 2 8 2.44772 8 3V4C5.79086 4 4 5.79086 4 8H3C2.44772 8 2 8.44772 2 9C2 9.55228 2.44772 10 3 10H4V14H3C2.44772 14 2 14.4477 2 15C2 15.5523 2.44772 16 3 16H4C4 18.2091 5.79086 20 8 20V21C8 21.5523 8.44772 22 9 22C9.55228 22 10 21.5523 10 21V20H14V21C14 21.5523 14.4477 22 15 22C15.5523 22 16 21.5523 16 21V20C18.2091 20 20 18.2091 20 16H21C21.5523 16 22 15.5523 22 15C22 14.4477 21.5523 14 21 14H20V10H21C21.5523 10 22 9.55228 22 9C22 8.44772 21.5523 8 21 8H20C20 5.79086 18.2091 4 16 4V3ZM6 16V8C6 6.89543 6.89543 6 8 6H16C17.1046 6 18 6.89543 18 8V16C18 17.1046 17.1046 18 16 18H8C6.89543 18 6 17.1046 6 16Z" fill="black"/>
</svg>
