<svg width="24" height="24" viewBox="0 0 24 24" fill="none" xmlns="http://www.w3.org/2000/svg">
<path fill-rule="evenodd" clip-rule="evenodd" d="M12 14C13.1046 14 14 13.1046 14 12C14 10.8954 13.1046 10 12 10C10.8954 10 10 10.8954 10 12C10 13.1046 10.8954 14 12 14ZM12 16C14.2091 16 16 14.2091 16 12C16 9.79086 14.2091 8 12 8C9.79087 8 8.00001 9.79086 8.00001 12C8.00001 14.2091 9.79087 16 12 16Z" fill="black"/>
<path fill-rule="evenodd" clip-rule="evenodd" d="M4.84429 8.27191C6.50724 6.70629 8.99442 5 12 5C15.0056 5 17.4928 6.70629 19.1557 8.27191C20.0004 9.06716 20.6681 9.85937 21.1248 10.4523C21.3538 10.7495 21.5313 10.9987 21.6531 11.176C21.714 11.2647 21.7611 11.3355 21.7937 11.3856C21.8101 11.4106 21.8229 11.4304 21.832 11.4447L21.8429 11.4618L21.8463 11.4672L21.8474 11.4691C21.8474 11.4691 21.8483 11.4704 21 12C21.8638 12.5039 21.8634 12.5045 21.8634 12.5045L21.8618 12.5073L21.8585 12.5129L21.848 12.5305C21.8393 12.5451 21.8271 12.5652 21.8116 12.5906C21.7805 12.6412 21.7358 12.7127 21.6778 12.8021C21.5619 12.9807 21.3925 13.2315 21.1725 13.5303C20.7338 14.1264 20.0873 14.9224 19.255 15.7214C17.6094 17.3012 15.1225 19 12 19C8.87756 19 6.39056 17.3012 4.74497 15.7214C3.91269 14.9224 3.26624 14.1264 2.82748 13.5303C2.6075 13.2315 2.43815 12.9807 2.32224 12.8021C2.26425 12.7127 2.21953 12.6412 2.18843 12.5906C2.17288 12.5652 2.16072 12.5451 2.15201 12.5305L2.14152 12.5129L2.13823 12.5073L2.13706 12.5053C2.13706 12.5053 2.13623 12.5039 3.00001 12C2.15176 11.4704 2.15213 11.4698 2.15213 11.4698L2.15376 11.4672L2.15714 11.4618L2.16805 11.4447C2.17716 11.4304 2.18992 11.4106 2.20627 11.3856C2.23896 11.3355 2.28603 11.2647 2.34695 11.176C2.46872 10.9987 2.64624 10.7495 2.8752 10.4523C3.33189 9.85937 3.99959 9.06716 4.84429 8.27191ZM3.00001 12L2.15213 11.4698C1.95552 11.7847 1.94917 12.1832 2.13623 12.5039L3.00001 12ZM4.20286 12.0155C4.27138 12.1143 4.34991 12.2248 4.43816 12.3447C4.82752 12.8736 5.39982 13.5776 6.13004 14.2786C7.60945 15.6988 9.62246 17 12 17C14.3776 17 16.3906 15.6988 17.87 14.2786C18.6002 13.5776 19.1725 12.8736 19.5619 12.3447C19.6501 12.2248 19.7286 12.1143 19.7971 12.0155C19.7226 11.913 19.6369 11.798 19.5404 11.6727C19.1305 11.1406 18.5333 10.4328 17.7848 9.72809C16.2612 8.29371 14.2484 7 12 7C9.75163 7 7.73881 8.29371 6.21525 9.72809C5.46669 10.4328 4.86951 11.1406 4.45964 11.6727C4.36316 11.798 4.27741 11.913 4.20286 12.0155ZM21 12L21.8634 12.5045C22.0505 12.1839 22.0449 11.7853 21.8483 11.4704L21 12Z" fill="black"/>
</svg>
