<svg width="24" height="24" viewBox="0 0 24 24" fill="none" xmlns="http://www.w3.org/2000/svg">
<path d="M14 3L14.7071 2.29289C14.5196 2.10536 14.2652 2 14 2V3ZM19 8H20C20 7.73478 19.8946 7.48043 19.7071 7.29289L19 8ZM14 8H13C13 8.55228 13.4477 9 14 9V8ZM17 20H7V22H17V20ZM6 19V5H4V19H6ZM7 4H14V2H7V4ZM18 8V19H20V8H18ZM19 7H14V9H19V7ZM15 8V3H13V8H15ZM13.2929 3.70711L18.2929 8.70711L19.7071 7.29289L14.7071 2.29289L13.2929 3.70711ZM7 20C6.44772 20 6 19.5523 6 19H4C4 20.6569 5.34315 22 7 22V20ZM17 22C18.6569 22 20 20.6569 20 19H18C18 19.5523 17.5523 20 17 20V22ZM6 5C6 4.44772 6.44772 4 7 4V2C5.34315 2 4 3.34315 4 5H6Z" fill="black"/>
</svg>
