<svg width="24" height="24" viewBox="0 0 24 24" fill="none" xmlns="http://www.w3.org/2000/svg">
<path fill-rule="evenodd" clip-rule="evenodd" d="M5 2C5.55228 2 6 2.44772 6 3V5.34315C6 6.13879 6.31607 6.90186 6.87868 7.46447L7 7.58579V3C7 2.44772 7.44772 2 8 2C8.55228 2 9 2.44772 9 3V7.58579L9.12132 7.46447C9.68393 6.90186 10 6.13879 10 5.34315V3C10 2.44772 10.4477 2 11 2C11.5523 2 12 2.44772 12 3V5.34315C12 6.66923 11.4732 7.941 10.5355 8.87868L9 10.4142V21C9 21.5523 8.55228 22 8 22C7.44772 22 7 21.5523 7 21V10.4142L5.46447 8.87868C4.52678 7.941 4 6.66923 4 5.34315V3C4 2.44772 4.44772 2 5 2ZM18 4.52609C16.781 5.3577 15.2619 7.24288 15.0301 11H18V4.52609ZM18 13V21C18 21.5523 18.4477 22 19 22C19.5523 22 20 21.5523 20 21V4.2198C20 3.59951 19.7135 3.01937 19.2273 2.6668C18.7171 2.29675 18.0175 2.20909 17.3828 2.55962C15.4537 3.62509 13.307 6.16622 13.0301 10.9404C12.9627 12.1019 13.9095 13 15 13H18Z" fill="black"/>
</svg>
