<svg width="24" height="24" viewBox="0 0 24 24" fill="none" xmlns="http://www.w3.org/2000/svg">
<path d="M12 22C11.8684 22.0008 11.738 21.9741 11.6161 21.9214C11.4943 21.8687 11.3835 21.791 11.2901 21.6929L3.52113 13.455C2.54663 12.4123 2 11.0044 2 9.5373C2 8.07018 2.54663 6.66233 3.52113 5.61954C4.50326 4.58241 5.83366 4 7.22064 4C8.60762 4 9.93801 4.58241 10.9201 5.61954L12 6.7631L13.0799 5.61954C14.062 4.58241 15.3924 4 16.7794 4C18.1663 4 19.4967 4.58241 20.4789 5.61954C21.4534 6.66233 22 8.07018 22 9.5373C22 11.0044 21.4534 12.4123 20.4789 13.455L12.7099 21.6929C12.6165 21.791 12.5057 21.8687 12.3839 21.9214C12.262 21.9741 12.1316 22.0008 12 22ZM7.22064 6.1172C6.79737 6.11518 6.37793 6.2021 5.98661 6.37295C5.59529 6.54381 5.23988 6.79518 4.94094 7.11253C4.33708 7.75538 3.99811 8.62525 3.99811 9.532C3.99811 10.4388 4.33708 11.3086 4.94094 11.9515L12 19.4376L19.0591 11.9515C19.6629 11.3086 20.0019 10.4388 20.0019 9.532C20.0019 8.62525 19.6629 7.75538 19.0591 7.11253C18.4428 6.49596 17.6271 6.15246 16.7794 6.15246C15.9316 6.15246 15.1159 6.49596 14.4997 7.11253L12.7099 9.01846C12.617 9.1177 12.5064 9.19648 12.3845 9.25023C12.2627 9.30399 12.132 9.33166 12 9.33166C11.868 9.33166 11.7373 9.30399 11.6155 9.25023C11.4936 9.19648 11.383 9.1177 11.2901 9.01846L9.50033 7.11253C9.2014 6.79518 8.84598 6.54381 8.45467 6.37295C8.06335 6.2021 7.64391 6.11518 7.22064 6.1172Z" fill="black"/>
</svg>
