<svg width="24" height="24" viewBox="0 0 24 24" fill="none" xmlns="http://www.w3.org/2000/svg">
<path fill-rule="evenodd" clip-rule="evenodd" d="M11.3356 4.92849C11.7145 4.59171 12.2855 4.59171 12.6644 4.92849L19.6644 11.1507C19.8779 11.3405 20 11.6125 20 11.8981V19C20 19.5523 19.5523 20 19 20H16V17C16 14.7909 14.2091 13 12 13C9.79086 13 8 14.7909 8 17V20H5C4.44772 20 4 19.5523 4 19V11.8981C4 11.6125 4.12215 11.3405 4.33564 11.1507L11.3356 4.92849ZM10 20H14V17C14 15.8954 13.1046 15 12 15C10.8954 15 10 15.8954 10 17V20ZM13.9931 3.43368C12.8564 2.42331 11.1436 2.42331 10.0069 3.43368L3.00691 9.6559C2.36644 10.2252 2 11.0412 2 11.8981V19C2 20.6568 3.34315 22 5 22H19C20.6569 22 22 20.6568 22 19V11.8981C22 11.0412 21.6336 10.2252 20.9931 9.6559L13.9931 3.43368Z" fill="black"/>
</svg>
