<svg width="24" height="24" viewBox="0 0 24 24" fill="none" xmlns="http://www.w3.org/2000/svg">
<path fill-rule="evenodd" clip-rule="evenodd" d="M4.60475 17.8043C2.61315 13.9169 3.1029 9.94683 5.83287 7.01464C8.67337 3.96373 13.7459 2.24045 20.3161 2.62693C20.8854 2.66042 21.3396 3.11461 21.3731 3.68392C21.7595 10.2541 20.0363 15.3266 16.9853 18.1671C14.0532 20.8971 10.0831 21.3868 6.19574 19.3952L4.5455 21.0455C4.10616 21.4848 3.39384 21.4848 2.9545 21.0455C2.51517 20.6062 2.51517 19.8938 2.9545 19.4545L4.60475 17.8043ZM6.2952 16.1138L14.2045 8.2045C14.6438 7.76516 15.3562 7.76516 15.7955 8.2045C16.2348 8.64384 16.2348 9.35616 15.7955 9.7955L7.8862 17.7048C10.7669 18.9271 13.443 18.3909 15.4522 16.5204C17.7059 14.4221 19.3042 10.4686 19.1691 4.83084C13.5314 4.69574 9.5779 6.29413 7.47963 8.54783C5.60907 10.557 5.07285 13.2331 6.2952 16.1138Z" fill="black"/>
</svg>
