<svg width="24" height="24" viewBox="0 0 24 24" fill="none" xmlns="http://www.w3.org/2000/svg">
<path fill-rule="evenodd" clip-rule="evenodd" d="M12 5C9.79086 5 8 6.79086 8 9H16C16 6.79086 14.2091 5 12 5ZM22 13C22 10.7909 20.2091 9 18 9C18 5.68629 15.3137 3 12 3C8.68629 3 6 5.68629 6 9C3.79086 9 2 10.7909 2 13V18C2 20.2091 3.79086 22 6 22H18C20.2091 22 22 20.2091 22 18V13ZM6 11C4.89543 11 4 11.8954 4 13V18C4 19.1046 4.89543 20 6 20H18C19.1046 20 20 19.1046 20 18V13C20 11.8954 19.1046 11 18 11H6ZM13 14C13 13.4477 12.5523 13 12 13C11.4477 13 11 13.4477 11 14V17C11 17.5523 11.4477 18 12 18C12.5523 18 13 17.5523 13 17V14Z" fill="black"/>
</svg>
