<svg width="24" height="24" viewBox="0 0 24 24" fill="none" xmlns="http://www.w3.org/2000/svg">
<path fill-rule="evenodd" clip-rule="evenodd" d="M5 7C4.44772 7 4 7.44772 4 8V16C4 16.5523 4.44772 17 5 17H19C19.5523 17 20 16.5523 20 16V8C20 7.44772 19.5523 7 19 7H5ZM2 8C2 6.34315 3.34315 5 5 5H19C20.6569 5 22 6.34315 22 8V16C22 17.6569 20.6569 19 19 19H5C3.34315 19 2 17.6569 2 16V8Z" fill="black"/>
<path fill-rule="evenodd" clip-rule="evenodd" d="M3.10557 6.55279C3.35256 6.05881 3.95324 5.85858 4.44721 6.10557L11.5528 9.65836C11.8343 9.79912 12.1657 9.79912 12.4472 9.65836L19.5528 6.10557C20.0468 5.85858 20.6474 6.05881 20.8944 6.55279C21.1414 7.04677 20.9412 7.64744 20.4472 7.89443L13.3416 11.4472C12.4971 11.8695 11.5029 11.8695 10.6584 11.4472L3.55279 7.89443C3.05881 7.64744 2.85858 7.04677 3.10557 6.55279Z" fill="black"/>
</svg>
