<svg width="24" height="24" viewBox="0 0 24 24" fill="none" xmlns="http://www.w3.org/2000/svg">
<path fill-rule="evenodd" clip-rule="evenodd" d="M2 5C2 3.34315 3.34315 2 5 2H19C20.6569 2 22 3.34315 22 5V15C22 16.6569 20.6569 18 19 18H12.5C12.1852 18 11.8889 18.1482 11.7 18.4L9.6 21.2C8.44679 22.7376 6 21.922 6 20V18H5C3.34315 18 2 16.6569 2 15V5ZM5 4C4.44772 4 4 4.44772 4 5V15C4 15.5523 4.44772 16 5 16H6C7.10457 16 8 16.8954 8 18V20L10.1 17.2C10.6666 16.4446 11.5557 16 12.5 16H19C19.5523 16 20 15.5523 20 15V5C20 4.44772 19.5523 4 19 4H5Z" fill="black"/>
</svg>
