<svg width="24" height="24" viewBox="0 0 24 24" fill="none" xmlns="http://www.w3.org/2000/svg">
<path fill-rule="evenodd" clip-rule="evenodd" d="M12 4C7.58175 4 4.00002 7.58172 4.00002 12C4.00002 13.5272 4.42697 14.9516 5.16751 16.1638C5.31639 16.4075 5.35396 16.7033 5.27076 16.9765L4.49201 19.5335L7.13089 18.7792C7.39578 18.7034 7.68017 18.7404 7.91694 18.8812C9.11143 19.5917 10.5065 20 12 20C16.4183 20 20 16.4183 20 12C20 7.58172 16.4183 4 12 4ZM2.00002 12C2.00002 6.47715 6.47718 2 12 2C17.5229 2 22 6.47715 22 12C22 17.5228 17.5229 22 12 22C10.294 22 8.68546 21.572 7.27838 20.8171L3.27486 21.9615C2.92267 22.0622 2.54363 21.9622 2.28686 21.701C2.03009 21.4398 1.93669 21.0591 2.04341 20.7087L3.23081 16.8098C2.44617 15.382 2.00002 13.7418 2.00002 12Z" fill="black"/>
</svg>
