<svg width="24" height="24" viewBox="0 0 24 24" fill="none" xmlns="http://www.w3.org/2000/svg">
<path d="M2.44513 18.6877L3.83227 17.3006L6.73853 20.2069L5.35139 21.594L2.44513 18.6877Z" fill="black"/>
<path fill-rule="evenodd" clip-rule="evenodd" d="M16.7929 2.79288C18.0118 1.57392 19.9882 1.57392 21.2071 2.79288C22.4261 4.01183 22.4261 5.98814 21.2071 7.20709L6.70711 21.7071C6.51957 21.8946 6.26522 22 6 22H3C2.44772 22 2 21.5523 2 21V18C2 17.7348 2.10536 17.4804 2.29289 17.2929L16.7929 2.79288ZM19.7929 4.20709C19.355 3.76919 18.645 3.76919 18.2071 4.20709L4 18.4142V20H5.58579L19.7929 5.79288C20.2308 5.35498 20.2308 4.645 19.7929 4.20709Z" fill="black"/>
</svg>
