<svg width="24" height="24" viewBox="0 0 24 24" fill="none" xmlns="http://www.w3.org/2000/svg">
<path fill-rule="evenodd" clip-rule="evenodd" d="M10 4C8.89543 4 8 4.89543 8 6V7H7C4.23858 7 2 9.23858 2 12V17C2 19.7614 4.23858 22 7 22H17C19.7614 22 22 19.7614 22 17V12C22 9.23858 19.7614 7 17 7H16V6C16 4.89543 15.1046 4 14 4H10ZM14 7V6H10V7H14ZM10 9H7C5.34315 9 4 10.3431 4 12V17C4 18.6569 5.34315 20 7 20H17C18.6569 20 20 18.6569 20 17V12C20 10.3431 18.6569 9 17 9H14H10ZM12 16C12.8284 16 13.5 15.3284 13.5 14.5C13.5 13.6716 12.8284 13 12 13C11.1716 13 10.5 13.6716 10.5 14.5C10.5 15.3284 11.1716 16 12 16ZM12 18C13.933 18 15.5 16.433 15.5 14.5C15.5 12.567 13.933 11 12 11C10.067 11 8.5 12.567 8.5 14.5C8.5 16.433 10.067 18 12 18Z" fill="black"/>
</svg>
