<svg width="24" height="24" viewBox="0 0 24 24" fill="none" xmlns="http://www.w3.org/2000/svg">
<path fill-rule="evenodd" clip-rule="evenodd" d="M12 20C16.4183 20 20 16.4183 20 12C20 7.58172 16.4183 4 12 4C7.58172 4 4 7.58172 4 12C4 16.4183 7.58172 20 12 20ZM12 22C17.5228 22 22 17.5228 22 12C22 6.47715 17.5228 2 12 2C6.47715 2 2 6.47715 2 12C2 17.5228 6.47715 22 12 22Z" fill="black"/>
<path fill-rule="evenodd" clip-rule="evenodd" d="M12 6.75736C12.5523 6.75736 13 7.20507 13 7.75736V16.2426C13 16.7949 12.5523 17.2426 12 17.2426C11.4477 17.2426 11 16.7949 11 16.2426V7.75736C11 7.20507 11.4477 6.75736 12 6.75736Z" fill="black"/>
<path fill-rule="evenodd" clip-rule="evenodd" d="M17.2426 12C17.2426 12.5523 16.7949 13 16.2426 13H7.75736C7.20507 13 6.75736 12.5523 6.75736 12C6.75736 11.4477 7.20507 11 7.75736 11H16.2426C16.7949 11 17.2426 11.4477 17.2426 12Z" fill="black"/>
</svg>
