<svg width="24" height="24" viewBox="0 0 24 24" fill="none" xmlns="http://www.w3.org/2000/svg">
<path fill-rule="evenodd" clip-rule="evenodd" d="M9 4.43407L4.18532 12L9 19.566L7.31268 20.6397L1.8147 12L7.31268 3.36032C8.38691 1.67225 11 2.43316 11 4.43407V6.00001H16C19.3137 6.00001 22 8.6863 22 12V21C22 21.5523 21.5523 22 21 22C20.4477 22 20 21.5523 20 21C20 19.701 19.5127 19.0064 18.9685 18.6044C18.3747 18.166 17.6026 18 17 18H11V19.566C11 21.5669 8.38691 22.3278 7.31268 20.6397L9 19.566L9.00001 16H17C17.8524 16 19.003 16.2112 20 16.885V12C20 9.79087 18.2091 8.00001 16 8.00001H9.00001L9 4.43407Z" fill="black"/>
</svg>
