<svg width="24" height="24" viewBox="0 0 24 24" fill="none" xmlns="http://www.w3.org/2000/svg">
<path fill-rule="evenodd" clip-rule="evenodd" d="M5 10C4.44772 10 4 10.4477 4 11V19C4 19.5523 4.44772 20 5 20H19C19.5523 20 20 19.5523 20 19V11C20 10.4477 19.5523 10 19 10H15C14.4477 10 14 9.55228 14 9C14 8.44772 14.4477 8 15 8H19C20.6569 8 22 9.34315 22 11V19C22 20.6569 20.6569 22 19 22H5C3.34315 22 2 20.6569 2 19V11C2 9.34315 3.34315 8 5 8H9C9.55228 8 10 8.44772 10 9C10 9.55228 9.55228 10 9 10H5Z" fill="black"/>
<path fill-rule="evenodd" clip-rule="evenodd" d="M3.10557 9.55279C3.35256 9.05881 3.95324 8.85858 4.44721 9.10557L11.5528 12.6584C11.8343 12.7991 12.1657 12.7991 12.4472 12.6584L19.5528 9.10557C20.0468 8.85858 20.6474 9.05881 20.8944 9.55279C21.1414 10.0468 20.9412 10.6474 20.4472 10.8944L13.3416 14.4472C12.4971 14.8695 11.5029 14.8695 10.6584 14.4472L3.55279 10.8944C3.05881 10.6474 2.85858 10.0468 3.10557 9.55279Z" fill="black"/>
<path fill-rule="evenodd" clip-rule="evenodd" d="M15.7071 6.70711C15.3166 7.09763 14.6834 7.09763 14.2929 6.70711L13 5.41421V11C13 11.5523 12.5523 12 12 12C11.4477 12 11 11.5523 11 11V5.41421L9.70711 6.70711C9.31658 7.09763 8.68342 7.09763 8.29289 6.70711C7.90237 6.31658 7.90237 5.68342 8.29289 5.29289L11.2929 2.29289C11.6834 1.90237 12.3166 1.90237 12.7071 2.29289L15.7071 5.29289C16.0976 5.68342 16.0976 6.31658 15.7071 6.70711Z" fill="black"/>
</svg>
