<svg width="24" height="24" viewBox="0 0 24 24" fill="none" xmlns="http://www.w3.org/2000/svg">
<path fill-rule="evenodd" clip-rule="evenodd" d="M3 11C3.55228 11 4 11.4477 4 12V17C4 17.5523 4.44772 18 5 18H19C19.5523 18 20 17.5523 20 17V12C20 11.4477 20.4477 11 21 11C21.5523 11 22 11.4477 22 12V17C22 18.6569 20.6569 20 19 20H5C3.34315 20 2 18.6569 2 17V12C2 11.4477 2.44772 11 3 11Z" fill="black"/>
<path fill-rule="evenodd" clip-rule="evenodd" d="M15.7071 9.70711C15.3166 10.0976 14.6834 10.0976 14.2929 9.70711L13 8.41421V14C13 14.5523 12.5523 15 12 15C11.4477 15 11 14.5523 11 14V8.41421L9.70711 9.70711C9.31658 10.0976 8.68342 10.0976 8.29289 9.70711C7.90237 9.31658 7.90237 8.68342 8.29289 8.29289L11.2929 5.29289C11.6834 4.90237 12.3166 4.90237 12.7071 5.29289L15.7071 8.29289C16.0976 8.68342 16.0976 9.31658 15.7071 9.70711Z" fill="black"/>
</svg>
