<svg width="24" height="24" viewBox="0 0 24 24" fill="none" xmlns="http://www.w3.org/2000/svg">
<path fill-rule="evenodd" clip-rule="evenodd" d="M10.1026 3.52984C10.7104 1.70644 13.2896 1.70645 13.8974 3.52984L15.4708 8.25001H20.1382C22.0312 8.25001 22.8648 10.6358 21.3838 11.8148L17.5647 14.855L19.1095 19.6276C19.7144 21.4965 17.5442 23.0264 15.9873 21.8288L12 18.7616L8.05255 21.7981C6.48846 23.0013 4.31175 21.4525 4.93576 19.5804L6.43548 15.0813L2.48167 11.7865C1.04464 10.5889 1.89145 8.25001 3.76204 8.25001L8.52923 8.25001L10.1026 3.52984ZM12 4.16229L10.4266 8.88247C10.1544 9.69915 9.3901 10.25 8.52923 10.25H3.76204L7.71584 13.5448C8.34832 14.0719 8.59319 14.9327 8.33284 15.7137L6.83313 20.2129L10.7806 17.1764C11.4995 16.6234 12.5005 16.6234 13.2194 17.1764L17.2067 20.2435L15.6619 15.4709C15.4053 14.6781 15.6671 13.8093 16.3191 13.2903L20.1382 10.25H15.4708C14.6099 10.25 13.8456 9.69915 13.5734 8.88247L12 4.16229Z" fill="black"/>
</svg>
