<svg width="24" height="24" viewBox="0 0 24 24" fill="none" xmlns="http://www.w3.org/2000/svg">
<path fill-rule="evenodd" clip-rule="evenodd" d="M5 6C5.55228 6 6 6.44772 6 7V19C6 19.5523 6.44772 20 7 20H17C17.5523 20 18 19.5523 18 19V7C18 6.44772 18.4477 6 19 6C19.5523 6 20 6.44772 20 7V19C20 20.6569 18.6569 22 17 22H7C5.34315 22 4 20.6569 4 19V7C4 6.44772 4.44772 6 5 6Z" fill="black"/>
<path fill-rule="evenodd" clip-rule="evenodd" d="M2 7C2 6.44772 2.44772 6 3 6H21C21.5523 6 22 6.44772 22 7C22 7.55228 21.5523 8 21 8H3C2.44772 8 2 7.55228 2 7Z" fill="black"/>
<path fill-rule="evenodd" clip-rule="evenodd" d="M9 10C9.55228 10 10 10.4477 10 11V17C10 17.5523 9.55228 18 9 18C8.44772 18 8 17.5523 8 17V11C8 10.4477 8.44772 10 9 10Z" fill="black"/>
<path fill-rule="evenodd" clip-rule="evenodd" d="M15 10C15.5523 10 16 10.4477 16 11V17C16 17.5523 15.5523 18 15 18C14.4477 18 14 17.5523 14 17V11C14 10.4477 14.4477 10 15 10Z" fill="black"/>
<path fill-rule="evenodd" clip-rule="evenodd" d="M12 4C10.3431 4 9 5.34315 9 7H7C7 4.23858 9.23858 2 12 2C14.7614 2 17 4.23858 17 7H15C15 5.34315 13.6569 4 12 4Z" fill="black"/>
</svg>
