<svg width="24" height="24" viewBox="0 0 24 24" fill="none" xmlns="http://www.w3.org/2000/svg">
<path fill-rule="evenodd" clip-rule="evenodd" d="M5 2C3.34315 2 2 3.34315 2 5V15C2 16.0623 2.5521 16.9956 3.38499 17.5286C3.13986 17.9634 3 18.4653 3 19C3 20.6569 4.34315 22 6 22C7.65685 22 9 20.6569 9 19C9 18.6494 8.93985 18.3128 8.82929 18H13C13.0579 18 13.1154 17.9984 13.1724 17.9951C13.0608 18.3093 13 18.6475 13 19C13 20.6569 14.3431 22 16 22C17.6569 22 19 20.6569 19 19C19 18.6494 18.9398 18.3128 18.8293 18H18.8975C20.6132 18 21.9794 16.5637 21.8938 14.8502L21.5938 8.85019C21.5139 7.25356 20.1961 6 18.5975 6H16V5C16 3.34315 14.6569 2 13 2H5ZM16 8V15V16H18.8975C19.4694 16 19.9248 15.5212 19.8963 14.9501L19.5963 8.95006C19.5696 8.41785 19.1304 8 18.5975 8H16ZM14 6V5C14 4.44772 13.5523 4 13 4H5C4.44772 4 4 4.44772 4 5V15C4 15.5523 4.44772 16 5 16H6H13C13.5523 16 14 15.5523 14 15V7V6ZM16 18C15.4477 18 15 18.4477 15 19C15 19.5523 15.4477 20 16 20C16.5523 20 17 19.5523 17 19C17 18.4477 16.5523 18 16 18ZM6 18C5.44772 18 5 18.4477 5 19C5 19.5523 5.44772 20 6 20C6.55228 20 7 19.5523 7 19C7 18.4477 6.55228 18 6 18Z" fill="black"/>
</svg>
